<?xml version="1.0" standalone="no"?>
<!DOCTYPE svg PUBLIC "-//W3C//DTD SVG 20010904//EN"
 "http://www.w3.org/TR/2001/REC-SVG-20010904/DTD/svg10.dtd">
<svg version="1.0" xmlns="http://www.w3.org/2000/svg"
 width="700.000000pt" height="700.000000pt" viewBox="0 0 700.000000 700.000000"
 preserveAspectRatio="xMidYMid meet">
<metadata>
Created by potrace 1.11, written by Peter Selinger 2001-2013
</metadata>
<g transform="translate(0.000000,700.000000) scale(0.100000,-0.100000)"
fill="#000000" stroke="none">
<path d="M1305 5289 c-172 -23 -358 -86 -489 -163 -235 -140 -423 -400 -496
-687 -61 -236 -40 -648 44 -904 40 -121 147 -331 213 -420 194 -259 507 -453
898 -554 110 -29 220 -47 429 -71 183 -21 216 -30 216 -55 0 -28 129 -266 206
-382 117 -176 223 -305 383 -464 166 -165 287 -253 391 -285 63 -18 103 -19
1115 -18 l1050 0 90 46 c113 58 190 115 300 226 268 268 500 676 720 1267 181
488 326 1090 365 1522 17 178 8 618 -13 690 -23 78 -79 175 -117 201 -30 20
-45 22 -164 22 -73 0 -321 -9 -551 -20 -674 -32 -1174 -50 -1415 -51 -124 0
-219 -3 -212 -6 9 -4 12 -136 12 -614 l0 -609 -75 37 -75 37 0 572 0 571 -112
6 c-62 4 -178 7 -258 7 -245 0 -1044 36 -1815 81 -460 27 -556 30 -640 18z
m225 -568 c0 -34 64 -470 86 -581 53 -278 127 -559 224 -845 28 -82 55 -167
59 -187 9 -37 8 -38 -18 -38 -29 0 -200 40 -306 72 -244 73 -472 232 -589 411
-72 111 -132 293 -157 481 -44 340 146 616 471 681 77 15 230 19 230 6z m2443
-710 c64 -30 120 -57 123 -62 5 -9 -71 -167 -115 -237 -17 -28 -37 -46 -59
-53 -46 -15 -99 -64 -124 -113 -19 -38 -20 -45 -8 -122 15 -96 16 -94 -101
-324 -98 -194 -121 -227 -172 -249 -48 -21 -103 -78 -113 -117 -11 -44 2 -113
30 -152 69 -100 194 -109 273 -19 47 54 59 107 38 171 -9 28 -21 58 -25 66 -8
14 188 421 227 468 10 13 43 32 73 42 50 17 58 17 100 3 67 -22 219 -103 256
-135 69 -61 56 -128 -78 -423 -65 -142 -80 -162 -142 -189 -86 -38 -134 -116
-123 -198 7 -50 25 -77 76 -112 78 -54 173 -45 235 24 52 58 60 98 33 176 -25
76 -30 58 83 307 171 379 149 464 -164 633 -117 62 -151 93 -171 154 -14 42
-15 56 -4 87 13 40 91 209 107 231 11 16 115 -30 502 -222 358 -178 391 -203
424 -315 21 -71 20 -100 -3 -158 -38 -95 -176 -386 -372 -781 -211 -424 -231
-456 -313 -493 -58 -26 -141 -24 -218 5 -105 40 -295 129 -673 316 -437 217
-521 265 -557 323 -50 80 -61 166 -29 239 102 238 506 1054 568 1148 58 88 78
107 130 126 73 27 154 14 286 -45z"/>
</g>
</svg>
