<svg xmlns="http://www.w3.org/2000/svg" width="400" height="400" viewBox="0 0 4000 4000" preserveAspectRatio="xMidYMid meet"><g fill="#5d4d7a"><path d="M1755 3250c-115-45-294-223-428-425-59-89-117-199-117-222 0-6-19-14-42-17-24-2-88-9-144-16-299-32-555-160-692-345-60-80-117-203-142-306-30-121-37-311-16-419 33-170 133-323 270-416 112-76 298-122 436-110 36 4 277 18 535 31 819 44 1097 43 1987-1 179-9 338-14 352-10 36 9 73 62 91 131 20 78 20 306 0 460-63 478-253 1025-469 1350-93 139-210 254-304 298l-67 32-600 2c-572 2-602 1-650-17zm-691-1095c-82-231-143-482-173-722l-18-138-57 2c-210 7-346 144-346 347 0 82 33 216 72 290 63 119 185 215 339 265 60 20 177 48 206 50 7 1-2-36-23-94z"/></g><g fill="#b2b2b2"><path d="M2105 2765c-222-108-349-176-367-195-32-35-51-98-42-137 4-15 82-181 174-369 182-371 189-382 275-392 36-4 58 2 124 33l80 38-42 83c-28 56-47 84-58 84-27 0-77 48-84 80-4 16-1 44 5 62 12 32 9 41-59 176-50 100-76 142-89 142-22 1-56 28-72 59-29 57 27 141 94 141 71 0 122-79 91-143l-16-34 68-139c58-118 72-140 93-142 14-2 31-8 37-14 17-14 179 66 200 98 21 33 11 79-51 213-46 102-55 116-82 123-46 12-76 50-78 98-1 35 4 47 32 71 54 48 129 35 161-28 15-29 14-52-3-85-14-26-12-34 39-141 112-235 101-291-73-381-79-40-90-50-105-86-15-39-15-41 21-120 20-44 39-80 43-80 4 0 112 51 241 113 158 77 241 123 256 142 28 35 45 96 36 132-12 46-324 686-348 711-32 35-70 52-118 52-36 0-104-29-383-165z"/><path d="M2403 1717l-43-21 0-328 0-328 45 0 45 0 0 350c0 193-1 350-2 349-2 0-22-10-45-22z"/></g></svg>